<?xml version="1.0" encoding="utf-8"?>
<!-- Generator: Adobe Illustrator 17.0.2, SVG Export Plug-In . SVG Version: 6.00 Build 0)  -->
<!DOCTYPE svg PUBLIC "-//W3C//DTD SVG 1.1//EN" "http://www.w3.org/Graphics/SVG/1.1/DTD/svg11.dtd">
<svg version="1.1" id="Layer_1" xmlns="http://www.w3.org/2000/svg" xmlns:xlink="http://www.w3.org/1999/xlink" x="0px" y="0px"
	 width="300px" height="300px" viewBox="0 0 300 300" style="enable-background:new 0 0 300 300;" xml:space="preserve">
<style type="text/css">
	.st0{fill-rule:evenodd;clip-rule:evenodd;fill:#FFFFFF;}
</style>
<g>
	<path class="st0" d="M97.84,241.319V118.086H56.884v123.233H97.84L97.84,241.319z M77.364,101.267
		c14.281,0,23.172-9.47,23.172-21.295c-0.267-12.088-8.891-21.292-22.901-21.292c-14.013,0-23.172,9.204-23.172,21.292
		c0,11.824,8.889,21.295,22.635,21.295H77.364L77.364,101.267z"/>
	<path class="st0" d="M120.507,241.319h40.959v-68.819c0-3.682,0.268-7.366,1.35-9.993c2.959-7.361,9.701-14.985,21.014-14.985
		c14.825,0,20.752,11.306,20.752,27.868v65.928h40.956V170.66c0-37.852-20.206-55.464-47.156-55.464
		c-22.097,0-31.797,12.353-37.186,20.763h0.271v-17.872h-40.959C121.045,129.648,120.507,241.319,120.507,241.319L120.507,241.319z"
		/>
</g>
</svg>
