<?xml version="1.0" encoding="utf-8"?>
<!-- Generator: Adobe Illustrator 17.0.2, SVG Export Plug-In . SVG Version: 6.00 Build 0)  -->
<!DOCTYPE svg PUBLIC "-//W3C//DTD SVG 1.1//EN" "http://www.w3.org/Graphics/SVG/1.1/DTD/svg11.dtd">
<svg version="1.1" id="Layer_1" xmlns="http://www.w3.org/2000/svg" xmlns:xlink="http://www.w3.org/1999/xlink" x="0px" y="0px"
	 width="300px" height="300px" viewBox="0 0 300 300" style="enable-background:new 0 0 300 300;" xml:space="preserve">
<style type="text/css">
	.st0{fill:#FFFFFF;}
</style>
<path class="st0" d="M262.223,80.391c-8.258,3.663-17.133,6.138-26.447,7.251c9.506-5.699,16.808-14.723,20.246-25.476
	c-8.898,5.277-18.752,9.109-29.241,11.174c-8.399-8.949-20.367-14.541-33.611-14.541c-25.43,0-46.048,20.617-46.048,46.046
	c0,3.609,0.407,7.124,1.192,10.494c-38.27-1.921-72.2-20.253-94.911-48.112c-3.964,6.801-6.235,14.711-6.235,23.15
	c0,15.976,8.129,30.07,20.485,38.328c-7.548-0.239-14.649-2.311-20.857-5.76c-0.004,0.192-0.004,0.385-0.004,0.579
	c0,22.31,15.873,40.921,36.938,45.152c-3.864,1.052-7.932,1.615-12.131,1.615c-2.967,0-5.852-0.289-8.664-0.826
	c5.86,18.293,22.865,31.607,43.015,31.978c-15.759,12.351-35.614,19.712-57.189,19.712c-3.717,0-7.382-0.218-10.984-0.644
	c20.378,13.066,44.583,20.69,70.587,20.69c84.698,0,131.015-70.167,131.015-131.017c0-1.996-0.045-3.982-0.134-5.957
	C248.243,97.735,256.049,89.625,262.223,80.391z"/>
</svg>
