<?xml version="1.0" encoding="utf-8"?>
<!-- Generator: Adobe Illustrator 17.1.0, SVG Export Plug-In . SVG Version: 6.00 Build 0)  -->
<!DOCTYPE svg PUBLIC "-//W3C//DTD SVG 1.1//EN" "http://www.w3.org/Graphics/SVG/1.1/DTD/svg11.dtd">
<svg version="1.1" id="Layer_1" xmlns="http://www.w3.org/2000/svg" xmlns:xlink="http://www.w3.org/1999/xlink" x="0px" y="0px"
	 viewBox="254.5 53.7 452.9 452.2" enable-background="new 254.5 53.7 452.9 452.2" xml:space="preserve">
<g id="NiH0ou.tif">
	<g>
		<path fill="#8BD0EF" d="M611.4,332.7c5.2-25.6,3.7-49.3-5.2-72.4c-0.4-1-0.8-2-1.2-3.1c-4.7-11-4.7-11,3.9-19.7
			c7-7,13.8-14.1,21-20.9c4.9-4.7,7.9-10.5,7.8-16.9c-0.2-9.2-1-18.5-2.7-27.6c-1.4-7.8-5.8-14.4-11.8-19.9
			c-5-4.6-9.6-9.5-14.4-14.2c-15.6-15.4-34.6-17.5-54.8-12.9c-3.6,0.8-7.1,3.7-9.9,6.4c-28.9,28.7-57.5,57.7-86.5,86.3
			c-10.7,10.6-12.8,23.2-11.5,37.2c1,10.1,5.6,18.3,13.2,25c5.3,4.7,10.2,10,15.2,15c8.1,8.2,8.1,17.9,0.1,26.1
			c-7.8,7.9-15.7,15.9-23.7,23.6c-7.2,7-16.9,7.4-24.1,0.5c-8.6-8.2-17.2-16.4-25-25.3c-19.2-22-26.3-48.4-25.2-77.1
			c1.2-30.5,13-56.1,35.4-77.5c27.3-26.1,53.9-53,80.2-80.2c17.1-17.6,37.5-27.7,61.4-30.4c33.2-3.6,65.1,1.8,91.5,23.1
			c24.7,20,48,41.9,56.6,74.6c9,33.9,8.3,66.8-10.3,97.7c-2.8,4.6-6.3,9-10.1,12.9c-22.1,22.4-44.3,44.5-66.5,66.7
			C614.1,330.6,613.2,331.2,611.4,332.7z"/>
		<path fill="#8BD0EF" d="M349.8,228.3c-0.7,9.1-1.7,18-1.9,26.9c-0.4,18.9,3.8,36.9,12.3,53.9c1.7,3.4,1.3,5.4-1.5,7.9
			c-7,6.6-13.3,14.1-20.7,20.4c-15.3,13-17.1,29.2-11.1,46.7c2.5,7.2,7.1,13.9,12.1,19.8c6.4,7.7,14.3,14.1,21,21.5
			c14.4,15.9,44.8,18,61.6-0.1c26.8-28.7,54.9-56.1,83.2-83.4c11-10.6,12.8-22.8,10.9-36.5c-1.4-10.4-6-19.4-14-26.5
			c-5.2-4.6-9.9-9.7-14.8-14.7c-6.9-7-7.2-17.5-0.4-24.6c8.1-8.4,16.4-16.7,24.8-24.8c6.3-6.1,16.5-7.1,22.4-1.4
			c12.8,12.4,27.1,23.7,35.6,39.9c21.2,40.5,21.5,81-1.9,120.8c-3.4,5.7-8.1,10.8-12.8,15.6c-28.8,29-57.8,57.9-86.7,86.8
			c-18.7,18.7-41.8,27.4-67.8,29c-28.6,1.7-55.8-3.6-78.1-22.2c-15.9-13.2-31.5-27.8-43.6-44.4c-26.7-36.5-31.3-77-12.9-118.9
			c3.9-8.8,9.9-17.2,16.6-24.2c21.2-22.2,43.2-43.6,64.9-65.3C347.8,229.7,348.9,229.1,349.8,228.3z"/>
	</g>
</g>
</svg>
